<?xml version="1.0" encoding="utf-8"?>
<!-- Generator: Adobe Illustrator 23.0.1, SVG Export Plug-In . SVG Version: 6.00 Build 0)  -->
<svg version="1.1" id="Layer_1" xmlns="http://www.w3.org/2000/svg" xmlns:xlink="http://www.w3.org/1999/xlink" x="0px" y="0px"
	 viewBox="0 0 1443 566.9" style="enable-background:new 0 0 1443 566.9;" xml:space="preserve">
<style type="text/css">
	.st0{fill:#EC2023;}
	.st1{fill:#22B573;}
	.st2{fill:#8BD8F7;}
	.st3{fill:#020856;}
	.st4{fill:#FFFFFF;}
</style>
<path class="st0" d="M471.2,406.8c-35.8,100.8-138.5,166.1-248.6,150.8c-79.5-11-149.8-62.2-182.2-129.4
	c29.9,23.4,86.5,47.8,165.8,39.6C330.3,455.1,367.6,397.4,471.2,406.8z"/>
<polygon class="st1" points="109,170.6 222.8,233.9 186.1,237.1 411.9,7 225.9,270.4 207.5,296.5 189.2,273.5 108.1,171.6 "/>
<path class="st2" d="M490.6,335c-2.5,16.5-6.7,32.6-12.5,48.2c-109.4-11.6-149.7,48.9-281.1,60.5c-83.9,7.4-137.1-18.2-168.3-43.4
	c-6.3-13.6-11.1-22.6-11.1-42.7c67.4,16.3,181.6,35.1,263.4-6.9c78-40,119.4-74.9,167.6-94.3c12.6-5.1,25.6-9,38.9-11.6
	c0.3,1.5,0.7,3.1,1,4.6C494.3,277.6,495,306.6,490.6,335z"/>
<path class="st1" d="M22.7,325.3c-0.9-13.3-0.5-26.7,1.3-39.9c1.6-13.3,4.4-26.5,8.4-39.4c4.1-12.9,9.2-25.4,15.4-37.4l4.8-9
	l5.3-8.7c3.7-5.7,7.5-11.3,11.7-16.7c16.6-21.8,37-40.4,60.1-55.1c11.6-7.4,23.7-13.7,36.4-19C217.2,79,274.2,76.4,327,92.9
	c6.5,2.2,13,4.2,19.2,7l4.7,2c1.6,0.6,3.1,1.3,4.6,2.1l9.2,4.5c12,6.4,23.7,13.4,34.3,21.9l4,3.1c1.3,1,2.6,2.2,3.9,3.3l7.7,6.6
	l7.3,7.1c1.2,1.2,2.4,2.3,3.6,3.6l3.4,3.8c18.1,19.8,32.5,42.8,42.4,67.7l-5.1-8.5c-0.9-1.4-1.6-2.9-2.6-4.2l-2.8-4.1
	c-1.9-2.7-3.6-5.5-5.5-8.2l-5.9-7.9c-8.2-10.2-16.7-20.2-26.4-28.9l-3.5-3.4c-1.2-1.1-2.5-2.1-3.7-3.2l-7.4-6.3l-7.8-5.8
	c-1.3-1-2.6-2-3.9-2.9l-4-2.7c-10.7-7.2-21.9-13.6-33.6-19l-8.8-3.8c-1.5-0.7-3-1.2-4.5-1.7l-4.5-1.6c-6-2.4-12.2-4-18.3-5.9
	c-12.4-3.3-25-5.7-37.7-7.1c-12.7-1.4-25.5-1.7-38.3-1.1c-12.7,0.7-25.4,2.5-37.9,5.3c-25,5.5-48.9,15.1-70.7,28.4
	c-11,6.6-21.4,14.1-31.1,22.4c-9.7,8.4-18.8,17.5-27.2,27.2c-16.8,19.8-30.2,42.1-39.7,66.2c-1.2,3-2.5,6-3.5,9.1l-3.1,9.3l-2.7,9.4
	l-0.7,2.3l-0.6,2.4l-1.2,4.8c-1.6,6.4-2.7,12.9-3.7,19.4S23.2,318.7,22.7,325.3z"/>
<g>
	<path class="st4" d="M70.7,352.5l-1.3-6.7l-16-2.8l-3.5,5.9l-9-1.6l20.9-34.9l10,1.7l7.9,39.9L70.7,352.5z M65.5,321.2l-8.6,15.1
		l11.7,2L65.5,321.2z"/>
</g>
<g>
	<path class="st4" d="M123.4,359.6l-1.7-6.7l-16.3-1.7l-3,6.2l-9.2-0.9l18.5-36.5l10.1,1l10.8,39.5L123.4,359.6z M115.9,328.6
		l-7.6,15.7l11.8,1.2L115.9,328.6z"/>
</g>
<g>
	<path class="st4" d="M147.7,356.4l4.6-6.3c3.1,3.4,7.5,5.3,12.1,5.4c4.5,0.1,6.7-1.9,6.7-4.1c0.1-6.6-21.9-2.3-21.7-16.7
		c0.1-6.4,5.7-11.5,14.7-11.4c6.1,0.1,11.1,2,14.8,5.6l-4.6,6c-3-2.8-6.9-4.3-11-4.3c-3.4-0.1-5.4,1.4-5.4,3.7
		c-0.1,6,21.9,2.3,21.7,16.5c-0.1,7-5.2,12.2-15.5,12C156.5,362.6,151.3,360,147.7,356.4z"/>
</g>
<g>
	<path class="st4" d="M193.1,347l-2.4-22.8l8.2-0.9l2.4,22.5c0.6,5.3,4,8.6,9.9,8c5.9-0.6,8.5-4.6,7.9-9.9l-2.4-22.5l8.3-0.9
		l2.4,22.8c1,9.4-3.9,16.5-15.4,17.7C200.4,362.2,194.1,356.4,193.1,347z"/>
</g>
<g>
	<path class="st4" d="M244.3,355.6l-12.1-36.2l7.8-2.6l9.8,29.4l15.3-5.1l2.3,6.8L244.3,355.6z"/>
</g>
<g>
	<path class="st4" d="M284.1,340.3L266,306.7l23.8-12.8l3.4,6.3l-16.6,9l3.8,7.1l16.3-8.8l3.4,6.3l-16.3,8.8l4.1,7.7l16.6-9l3.4,6.3
		L284.1,340.3z"/>
</g>
<g>
	<path class="st4" d="M335.2,316.5l-3.5-5.4c6.8-18.2,8.5-24,6-27.9c-1.8-2.8-5.3-2.5-7.9-0.8c-3.3,2.1-5.5,5.4-6.2,9.3l-6.8-2
		c0.8-5.6,4.5-10.3,8.9-13.2c6.9-4.5,14.7-4.1,18.9,2.3c3.6,5.5,2.1,13.2-2.2,24.6l13.1-8.5l3.9,6L335.2,316.5z"/>
</g>
<g>
	<path class="st4" d="M358.1,278.5c-5.6-8.1-7.2-18.9,1.7-25.2c9-6.2,18.6-0.9,24.2,7.1c5.6,8.1,7.3,19-1.7,25.2
		C373.4,292,363.8,286.6,358.1,278.5z M377.2,265.3c-4-5.8-8.8-9.1-13.3-6c-4.5,3.1-3,8.7,1,14.5c4,5.8,8.8,9.1,13.3,6
		S381.3,271,377.2,265.3L377.2,265.3z"/>
</g>
<g>
	<path class="st4" d="M402.7,270.6l-3.3-5.4c7.3-18,9.1-23.6,6.7-27.6c-1.8-2.9-5.2-2.7-7.8-1c-3.3,2-5.7,5.3-6.4,9.1l-6.7-2.2
		c0.9-5.6,4.7-10.2,9.3-13c7-4.3,14.8-3.7,18.7,2.8c3.4,5.5,1.8,13.2-2.9,24.4l13.2-8.1l3.7,6.1L402.7,270.6z"/>
</g>
<g>
	<path class="st4" d="M432.9,245.7l1.8-6.7c3.7,1.4,7.7,1.4,11.3-0.1c4.3-1.8,5.8-4.7,4.7-7.3c-1.2-2.8-3.9-3.1-8.8-1
		c-1.5,0.6-3.8,1.7-4.3,2l-2.9-6.7c0.7-0.2,3.1-1.3,4.4-1.8c3.9-1.7,6-4,4.9-6.5c-1.2-2.8-4.7-2.9-8.3-1.3c-3.3,1.4-6,4.1-7.4,7.5
		l-5.7-3.1c1.5-4.4,4.9-8.7,11-11.3c8.2-3.5,14.8-2,17.3,3.8c1.9,4.4-0.6,8.9-4.2,11.3c3.7-1.2,9.6-0.4,11.8,4.9
		c2.6,6-1,12.6-9.4,16.3C442.8,248.1,436.9,247.7,432.9,245.7z"/>
</g>
<path class="st4" d="M537.6,294v-81.2h57.5V228h-40.2v17h39.3v15.2h-39.3v18.5h40.2V294H537.6z"/>
<path class="st4" d="M661.6,294l-20.3-29.7L620.8,294h-20.6l29.5-41.6L602,212.8h20.6l18.6,27.8l18.4-27.8h20.8l-27.6,39.4
	l29.5,41.8H661.6z"/>
<path class="st4" d="M682.4,253.5c0-25.1,18.9-42,43.3-42c17.8,0,28.1,9.6,33.8,19.8l-14.9,7.3c-3.7-7.1-11-11.6-19-11.8
	c-14.9,0-25.6,11.3-25.6,26.7s10.7,26.7,25.6,26.7c8-0.2,15.3-4.7,19-11.8l14.9,7.2c-5.7,10.1-16.1,20-33.8,20
	C701.3,295.5,682.4,278.4,682.4,253.5z"/>
<path class="st4" d="M769.9,294v-81.2h57.5V228h-40.2v17h39.3v15.2h-39.3v18.5h40.2V294H769.9z"/>
<path class="st4" d="M840.9,294v-81.2h57.5V228h-40.2v17h39.3v15.2h-39.3v18.5h40.2V294H840.9z"/>
<path class="st4" d="M911.9,294v-81.2h32c25.4,0,43.1,16.2,43.1,40.5c0,24.6-17.7,40.7-43,40.7H911.9z M969.4,253.3
	c0-14.2-8.8-25.3-25.3-25.3h-14.9v50.8h14.7C960,278.8,969.4,267.2,969.4,253.3L969.4,253.3z"/>
<path class="st4" d="M999.3,294v-81.2h17.3V294H999.3z"/>
<path class="st4" d="M1088.7,294l-38.7-53v53h-17.3v-81.2h17.8l37.6,51v-51h17.3V294H1088.7z"/>
<path class="st4" d="M1117.6,253.5c0-25.7,19.5-42,43.3-42c16.8,0,27.4,8.5,33.5,18.1l-14.2,7.8c-4.2-6.5-11.5-10.5-19.2-10.6
	c-14.9,0-25.6,11.3-25.6,26.7s10.7,26.7,25.6,26.7c7.2,0,13.9-3.2,17.2-6.2v-9.7h-21.4v-15.1h38.7v31.2
	c-8.7,9.9-21.3,15.4-34.5,15.2C1137,295.5,1117.6,279,1117.6,253.5z"/>
<path class="st4" d="M1296.5,294l-5.1-13.8h-34.8l-5.1,13.8h-19.6l31.3-81.2h21.7l31.3,81.2H1296.5z M1274,230.1l-12.7,34.9h25.3
	L1274,230.1z"/>
<path class="st4" d="M1323,294v-81.2h17.4v66h34.3V294H1323z"/>
<path class="st4" d="M1385.7,294v-81.2h17.4v66h34.3V294H1385.7z"/>
<path class="st4" d="M537.6,409.3v-76.2h53.9v14.3h-37.7v16h36.9v14.3h-36.9V395h37.7v14.3L537.6,409.3z"/>
<path class="st4" d="M662.5,409.3l-19.1-27.9l-19.2,27.9h-19.3l27.6-39.1l-25.9-37.1h19.3l17.5,26l17.3-26h19.5l-25.9,37l27.6,39.2
	L662.5,409.3z"/>
<path class="st4" d="M697.7,409.3v-76.2h35.6c16.6,0,25.6,11.2,25.6,24.6c0,13.3-9.1,24.4-25.6,24.4h-19.4v27.2L697.7,409.3z
	 M742.4,357.7c0-6.4-4.9-10.3-11.3-10.3h-17.1v20.4h17.1C737.4,367.8,742.4,364,742.4,357.7L742.4,357.7z"/>
<path class="st4" d="M777.7,409.3v-76.2h53.9v14.3h-37.7v16h36.9v14.3h-36.9V395h37.7v14.3L777.7,409.3z"/>
<path class="st4" d="M849.2,371.3c0-23.5,17.7-39.4,40.7-39.4c16.7,0,26.4,9,31.8,18.6l-13.9,6.9c-3.5-6.7-10.3-10.9-17.8-11.1
	c-13.9,0-24,10.6-24,25c0,14.4,10.1,25,24,25c7.5-0.2,14.3-4.4,17.8-11.1l13.9,6.7c-5.4,9.5-15.1,18.7-31.8,18.7
	C866.9,410.7,849.2,394.7,849.2,371.3z"/>
<path class="st4" d="M957.5,409.3v-61.9h-22.3v-14.3H996v14.3h-22.2v61.9H957.5z"/>
<path class="st4" d="M1060.3,409.3l-4.8-12.9h-32.7l-4.8,12.9h-18.4l29.4-76.2h20.3l29.4,76.2H1060.3z M1039.2,349.3l-11.9,32.8
	h23.8L1039.2,349.3z"/>
<path class="st4" d="M1104.6,409.3v-61.9h-22.3v-14.3h60.8v14.3H1121v61.9H1104.6z"/>
<path class="st4" d="M1162.1,409.3v-76.2h16.2v76.2H1162.1z"/>
<path class="st4" d="M1198.3,371.3c0-23,16.8-39.4,39.9-39.4c23,0,39.8,16.5,39.8,39.4c0,23-16.8,39.4-39.8,39.4
	C1215.1,410.7,1198.3,394.2,1198.3,371.3z M1261.3,371.3c0-14.3-9-25-23.1-25c-14.2,0-23.2,10.7-23.2,25c0,14.2,9,25,23.2,25
	C1252.3,396.3,1261.3,385.4,1261.3,371.3L1261.3,371.3z"/>
<path class="st4" d="M1350.5,409.3l-36.3-49.7v49.7H1298v-76.2h16.7l35.3,47.9v-47.9h16.2v76.2H1350.5z"/>
<g>
	<path class="st4" d="M1431.3,349.3l-12.8,3.5c-2.4-8-6.9-12-13.5-12c-3,0-5.5,0.9-7.4,2.8c-1.9,1.9-2.8,4.2-2.8,7
		c0,3.2,0.9,5.5,2.8,6.9c1.9,1.5,6.2,3.3,13,5.5c8.4,2.8,14.4,5.9,18,9.4c3.7,3.5,5.5,8.4,5.5,14.6c0,7-2.6,13-7.9,17.8
		c-5.3,4.9-12.3,7.3-21.3,7.3c-16.9,0-26.4-7.7-28.7-23.2l13.9-2.6c1.8,9.1,6.9,13.7,15.2,13.7c4.3,0,7.4-1.1,9.5-3.2
		c2.1-2.1,3.1-4.6,3.1-7.5c0-2-0.7-4-2.1-5.9c-1.4-2-5.4-4-11.9-6.1c-6.3-2-11-3.9-14.1-5.6c-3.2-1.7-5.8-4.2-7.8-7.5
		c-2-3.3-3.1-7-3.1-11.2c0-6.8,2.5-12.5,7.4-17.3c4.9-4.8,11.3-7.1,19.1-7.1C1418.9,328.8,1427.5,335.7,1431.3,349.3z"/>
</g>
</svg>
